<svg xmlns="http://www.w3.org/2000/svg" viewBox="0 0 1117 1243.44"><defs><style>.cls-1{fill:#000000;}.cls-2{fill:#fff;opacity:0.03;}</style></defs><g id="Layer_2" data-name="Layer 2"><g id="Layer_1-2" data-name="Layer 1"><path class="cls-1" d="M848.51,739.36A472,472,0,0,0,1117,656.07V492.42a358.35,358.35,0,0,1-212.58,69.44c-198.82,0-360-161.18-360-360A358.32,358.32,0,0,1,606.31,0h-151a472,472,0,0,0-81,265.18C374.32,527.06,586.62,739.36,848.51,739.36Z"/><path class="cls-1" d="M782.56,979.19c-359.35,0-650.67-291.31-650.67-650.66A647.67,647.67,0,0,1,220.81,0H0V1243.44H1117V886.77A647.73,647.73,0,0,1,782.56,979.19Z"/><path class="cls-1" d="M940.91,429.17A261.4,261.4,0,0,0,1117,361.29V0H738.41a261.29,261.29,0,0,0-59.86,166.81C678.55,311.71,796,429.17,940.91,429.17Z"/><path class="cls-2" d="M904.42,561.86A358.35,358.35,0,0,0,1117,492.42V361.29a261.4,261.4,0,0,1-176.09,67.88c-144.9,0-262.36-117.46-262.36-262.36A261.29,261.29,0,0,1,738.41,0H606.31a358.32,358.32,0,0,0-61.89,201.86C544.42,400.68,705.6,561.86,904.42,561.86Z"/><path class="cls-2" d="M782.56,979.19A647.73,647.73,0,0,0,1117,886.77V656.07a472,472,0,0,1-268.49,83.29c-261.89,0-474.19-212.3-474.19-474.18A472,472,0,0,1,455.34,0H220.81a647.67,647.67,0,0,0-88.92,328.53C131.89,687.88,423.21,979.19,782.56,979.19Z"/></g></g></svg>