<svg xmlns="http://www.w3.org/2000/svg" xmlns:xlink="http://www.w3.org/1999/xlink" width="1400" height="1080" style="width:100%;height:100%;transform:translate3d(0,0,0);content-visibility:visible" viewBox="0 0 1400 1080"><defs><radialGradient id="__lottie_element_11" cx="-143" cy="37" r="245.801" fx="-143" fy="37" gradientUnits="userSpaceOnUse" spreadMethod="pad"><stop offset="0%" stop-color="#fff"/><stop offset="50%" stop-color="#c1c1c1"/><stop offset="100%" stop-color="#828282"/></radialGradient><radialGradient id="__lottie_element_18" cx="-143" cy="37" r="245.801" fx="-143" fy="37" gradientUnits="userSpaceOnUse" spreadMethod="pad"><stop offset="14%" stop-color="#fff"/><stop offset="54%" stop-color="gray"/><stop offset="93%"/></radialGradient><radialGradient id="__lottie_element_874" cx="-143" cy="37" r="245.801" fx="-143" fy="37" gradientUnits="userSpaceOnUse" spreadMethod="pad"><stop offset="0%" stop-color="#fff"/><stop offset="57%" stop-color="#c1c1c1"/><stop offset="100%" stop-color="#828282"/></radialGradient><radialGradient id="__lottie_element_905" cx="-143" cy="37" r="245.801" fx="-143" fy="37" gradientUnits="userSpaceOnUse" spreadMethod="pad"><stop offset="0%" stop-color="#fff"/><stop offset="50%" stop-color="#c1c1c1"/><stop offset="100%" stop-color="#828282"/></radialGradient><radialGradient id="__lottie_element_936" cx="-143" cy="37" r="245.801" fx="-143" fy="37" gradientUnits="userSpaceOnUse" spreadMethod="pad"><stop offset="0%" stop-color="#fff"/><stop offset="50%" stop-color="#c1c1c1"/><stop offset="100%" stop-color="#828282"/></radialGradient><mask id="__lottie_element_15_3" mask-type="luminance"><use xlink:href="#__lottie_element_15"/></mask><mask id="__lottie_element_8_3" mask-type="luminance"><use xlink:href="#__lottie_element_8"/></mask><mask id="__lottie_element_871_3" mask-type="luminance"><use xlink:href="#__lottie_element_871"/></mask><mask id="__lottie_element_902_3" mask-type="luminance"><use xlink:href="#__lottie_element_902"/></mask><mask id="__lottie_element_933_3" mask-type="luminance"><use xlink:href="#__lottie_element_933"/></mask><g id="__lottie_element_8" style="display:block"><path fill="url(#__lottie_element_11)" fill-rule="evenodd" d="M305.94-116v250.34H-427V-116z" style="mix-blend-mode:screen" transform="matrix(1.13756 0 0 .99232 1019 433)"/><path fill-opacity="0" stroke="red" stroke-width="2" d="M366.469-125.168v250.336h-732.938v-250.336z" transform="matrix(1.13756 0 0 .99232 950.142 442.098)"/></g><g id="__lottie_element_15" style="display:block"><path fill="url(#__lottie_element_18)" fill-rule="evenodd" d="M-12.61-11.06v114.18h-272.01V-11.06z" transform="matrix(1 0 0 .97577 987 282)"/><path fill-opacity="0" stroke="red" stroke-width="2" d="M366.469-125.168v250.336h-732.938v-250.336z" transform="matrix(.37112 0 0 .44505 838.383 326.916)"/></g><g id="__lottie_element_871" style="display:block"><path fill="url(#__lottie_element_874)" fill-rule="evenodd" d="M100.91-127.35v308.4h-395.28v-308.4z" transform="matrix(1.56206 0 0 .42405 922 566)"/><path fill-opacity="0" stroke="red" stroke-width="2" d="M366.469-125.168v250.336h-732.938v-250.336z" transform="matrix(.84243 0 0 .52242 770.896 577.386)"/></g><g id="__lottie_element_902" style="display:block"><path fill="url(#__lottie_element_905)" fill-rule="evenodd" d="M187.5-112.85v250.33h-312.27v-250.33z" transform="matrix(1.56206 0 0 .5275 1168 627)"/><path fill-opacity="0" stroke="red" stroke-width="2" d="M366.469-125.168v250.336h-732.938v-250.336z" transform="matrix(.66553 0 0 .5275 1216.997 633.496)"/></g><g id="__lottie_element_933" style="display:block"><path fill="url(#__lottie_element_936)" fill-rule="evenodd" d="M305.94-110.39v239.12H-427v-239.12z" transform="matrix(1.42478 0 0 .6737 1041 732)"/><path fill-opacity="0" stroke="red" stroke-width="2" d="M366.469-125.168v250.336h-732.938v-250.336z" transform="matrix(1.42478 0 0 .64353 954.757 738.176)"/></g><clipPath id="__lottie_element_3"><path d="M0 0h1400v1080H0z"/></clipPath><clipPath id="__lottie_element_5"><path d="M0 0h1920v1080H0z"/></clipPath></defs><g clip-path="url(#__lottie_element_3)"><g fill="#efe5fb" stroke="#fff" stroke-linejoin="round" stroke-width=".01" clip-path="url(#__lottie_element_5)" font-family="Inter" font-weight="900" style="display:block" transform="translate(-551.245 -165.996)scale(1.30338)"><g aria-label="Experiences" font-size="148" mask="url(#__lottie_element_933_3)" style="display:block"><g style="display:inherit"><path d="M84.3 0v-23.55H36.16v-18.5h44.36v-23.54H36.16v-18.5h48.35v-23.55H6.94V0z" style="display:block" transform="matrix(1.10938 0 0 1.06 478.92 784)"/></g><g style="display:inherit"><path d="m3.36-80.73 21.45 40.37L1.89 0H30.9l13.25-25.65L57.81 0H86.4L63.7-40.36l21.65-40.37h-28.8l-12.4 25.02-11.77-25.02z" style="display:block" transform="matrix(1.10938 0 0 1.06 574.51 784)"/></g><g style="display:inherit"><path d="M37.29-50.64q1.545-4.275 4.41-6.57c1.91-1.52 4.2-2.28 6.86-2.28q3.99 0 6.81 2.28c1.87 1.53 3.31 3.72 4.31 6.57 1 2.86 1.5 6.28 1.5 10.28 0 3.99-.5 7.42-1.5 10.27-1 2.86-2.44 5.05-4.31 6.57-1.88 1.53-4.15 2.29-6.81 2.29s-4.95-.78-6.86-2.34-3.38-3.77-4.41-6.62c-1.04-2.86-1.55-6.25-1.55-10.17 0-4 .51-7.42 1.55-10.28zm-.92 80.91v-43.51h.42c1.12 2.73 2.72 5.17 4.81 7.33 2.08 2.15 4.61 3.85 7.57 5.1q4.44 1.86 10.11 1.86c5.75 0 11.03-1.51 15.85-4.52s8.67-7.58 11.56-13.72c2.89-6.13 4.34-13.85 4.34-23.17 0-9.74-1.52-17.66-4.55-23.76s-6.95-10.56-11.77-13.4-9.89-4.26-15.22-4.26c-3.99 0-7.49.69-10.51 2.08-3.01 1.38-5.53 3.22-7.57 5.52-2.03 2.29-3.57 4.8-4.62 7.54h-.63v-14.09H7.36v111z" style="display:block" transform="matrix(1.10938 0 0 1.06 665.898 784)"/></g><g style="display:inherit"><path d="M65.62-1.92c5.59-2.26 10.08-5.45 13.48-9.56 3.4-4.12 5.55-8.98 6.46-14.59H59.07a9.5 9.5 0 0 1-2.62 3.86c-1.2 1.07-2.62 1.89-4.29 2.45q-2.49.84-5.49.84c-2.87 0-5.33-.58-7.36-1.73-2.03-1.16-3.59-2.76-4.68-4.79-1.08-2.03-1.62-4.34-1.62-6.94v-17.23q.105-3.525 1.86-6.15c1.18-1.76 2.74-3.13 4.71-4.13 1.96-1 4.11-1.5 6.46-1.5 2.42 0 4.58.5 6.49 1.5s3.43 2.38 4.57 4.15 1.73 3.81 1.76 6.13H13.45v15.97h72.11v-6.72c0-6.42-.94-12.18-2.84-17.29-1.89-5.12-4.59-9.47-8.09-13.07-3.5-3.59-7.73-6.33-12.67-8.22s-10.45-2.84-16.55-2.84c-8.34 0-15.57 1.74-21.71 5.2-6.13 3.47-10.88 8.33-14.24 14.56-3.36 6.24-5.05 13.53-5.05 21.87 0 8.69 1.68 16.14 5.02 22.36 3.35 6.22 8.13 10.98 14.35 14.29s13.64 4.97 22.26 4.97c7.46 0 13.99-1.13 19.58-3.39z" style="display:block" transform="matrix(1.10938 0 0 1.06 765.675 784)"/></g><g style="display:inherit"><path d="M36.37 0v-42.05c0-3.08.65-5.77 1.94-8.06 1.3-2.3 3.08-4.08 5.34-5.36q3.39-1.92 7.65-1.92c1.5 0 3.31.12 5.41.37 2.1.24 3.87.61 5.31 1.1v-24.75a26 26 0 0 0-3.6-.82c-1.25-.19-2.5-.29-3.76-.29-4.31 0-8.07 1.32-11.27 3.94-3.21 2.63-5.55 6.78-7.02 12.46h-.84v-15.35H7.36V0z" style="display:block" transform="matrix(1.10938 0 0 1.06 858.934 784)"/></g><g style="display:inherit"><path d="M31.98-93.03c2.79-2.59 4.18-5.71 4.18-9.35s-1.39-6.76-4.18-9.36c-2.78-2.59-6.16-3.89-10.12-3.89-3.92 0-7.28 1.3-10.09 3.89q-4.2 3.9-4.2 9.36c0 3.64 1.4 6.76 4.2 9.35 2.81 2.6 6.19 3.89 10.15 3.89 3.92 0 7.28-1.29 10.06-3.89zM36.37 0v-80.73H7.36V0z" style="display:block" transform="matrix(1.10938 0 0 1.06 923.493 784)"/></g><g style="display:inherit"><path d="M65.62-1.92c5.59-2.26 10.08-5.45 13.48-9.56 3.4-4.12 5.55-8.98 6.46-14.59H59.07a9.5 9.5 0 0 1-2.62 3.86c-1.2 1.07-2.62 1.89-4.29 2.45q-2.49.84-5.49.84c-2.87 0-5.33-.58-7.36-1.73-2.03-1.16-3.59-2.76-4.68-4.79-1.08-2.03-1.62-4.34-1.62-6.94v-17.23q.105-3.525 1.86-6.15c1.18-1.76 2.74-3.13 4.71-4.13 1.96-1 4.11-1.5 6.46-1.5 2.42 0 4.58.5 6.49 1.5s3.43 2.38 4.57 4.15 1.73 3.81 1.76 6.13H13.45v15.97h72.11v-6.72c0-6.42-.94-12.18-2.84-17.29-1.89-5.12-4.59-9.47-8.09-13.07-3.5-3.59-7.73-6.33-12.67-8.22s-10.45-2.84-16.55-2.84c-8.34 0-15.57 1.74-21.71 5.2-6.13 3.47-10.88 8.33-14.24 14.56-3.36 6.24-5.05 13.53-5.05 21.87 0 8.69 1.68 16.14 5.02 22.36 3.35 6.22 8.13 10.98 14.35 14.29s13.64 4.97 22.26 4.97c7.46 0 13.99-1.13 19.58-3.39z" style="display:block" transform="matrix(1.10938 0 0 1.06 965.443 784)"/></g><g style="display:inherit"><path d="M37.84-52.27c.95-1.91 2.3-3.38 4.07-4.41 1.77-1.04 3.85-1.55 6.23-1.55 3.65 0 6.49 1.14 8.54 3.41 2.05 2.28 3.06 5.42 3.02 9.41V0h29.02v-51.51c.03-5.85-1.12-11.05-3.45-15.61-2.33-4.55-5.6-8.13-9.82-10.74-4.23-2.61-9.19-3.92-14.9-3.92-5.93 0-11.1 1.46-15.54 4.36-4.43 2.91-7.52 6.92-9.27 12.04h-.84v-15.35H7.36V0h29.01v-45.41c.03-2.66.52-4.95 1.47-6.86z" style="display:block" transform="matrix(1.10938 0 0 1.06 1058.702 784)"/></g><g style="display:inherit"><path d="M66.88-2.84c5.76-2.87 10.22-6.94 13.37-12.22 3.16-5.27 4.79-11.46 4.89-18.58H58.23c-.21 2.81-.83 5.18-1.86 7.13q-1.56 2.91-4.02 4.41c-1.65 1-3.54 1.5-5.68 1.5-2.52 0-4.73-.73-6.62-2.18-1.89-1.46-3.37-3.65-4.42-6.57-1.05-2.93-1.57-6.6-1.57-11.01 0-4.42.52-8.09 1.57-11.01 1.05-2.93 2.53-5.12 4.42-6.57 1.89-1.46 4.1-2.19 6.62-2.19 3.22 0 5.86 1.12 7.91 3.34 2.05 2.23 3.27 5.46 3.65 9.7h26.91c-.03-7.01-1.65-13.11-4.83-18.32-3.19-5.2-7.68-9.23-13.48-12.09-5.8-2.85-12.66-4.28-20.58-4.28-8.76 0-16.26 1.75-22.49 5.23-6.24 3.49-11.02 8.36-14.35 14.61-3.33 6.26-5 13.52-5 21.79 0 8.26 1.67 15.53 5 21.78 3.33 6.26 8.11 11.13 14.35 14.61 6.23 3.49 13.73 5.23 22.49 5.23 7.99 0 14.86-1.44 20.63-4.31z" style="display:block" transform="matrix(1.10938 0 0 1.06 1158.25 784)"/></g><g style="display:inherit"><path d="M65.62-1.92c5.59-2.26 10.08-5.45 13.48-9.56 3.4-4.12 5.55-8.98 6.46-14.59H59.07a9.5 9.5 0 0 1-2.62 3.86c-1.2 1.07-2.62 1.89-4.29 2.45q-2.49.84-5.49.84c-2.87 0-5.33-.58-7.36-1.73-2.03-1.16-3.59-2.76-4.68-4.79-1.08-2.03-1.62-4.34-1.62-6.94v-17.23q.105-3.525 1.86-6.15c1.18-1.76 2.74-3.13 4.71-4.13 1.96-1 4.11-1.5 6.46-1.5 2.42 0 4.58.5 6.49 1.5s3.43 2.38 4.57 4.15 1.73 3.81 1.76 6.13H13.45v15.97h72.11v-6.72c0-6.42-.94-12.18-2.84-17.29-1.89-5.12-4.59-9.47-8.09-13.07-3.5-3.59-7.73-6.33-12.67-8.22s-10.45-2.84-16.55-2.84c-8.34 0-15.57 1.74-21.71 5.2-6.13 3.47-10.88 8.33-14.24 14.56-3.36 6.24-5.05 13.53-5.05 21.87 0 8.69 1.68 16.14 5.02 22.36 3.35 6.22 8.13 10.98 14.35 14.29s13.64 4.97 22.26 4.97c7.46 0 13.99-1.13 19.58-3.39z" style="display:block" transform="matrix(1.10938 0 0 1.06 1251.262 784)"/></g><g style="display:inherit"><path d="M70.51-74.53c-6.75-4.83-15.96-7.25-27.62-7.25-7.68 0-14.31 1.03-19.9 3.08s-9.88 5.03-12.87 8.93c-3 3.91-4.48 8.66-4.44 14.27-.04 6.34 1.99 11.53 6.09 15.56s10.27 6.76 18.5 8.2l14.3 2.52c3.15.56 5.47 1.3 6.96 2.21s2.25 2.13 2.29 3.67c-.04 1.69-.92 2.98-2.66 3.89-1.73.92-3.93 1.37-6.59 1.37-3.3 0-6.02-.69-8.17-2.08q-3.24-2.07-3.81-5.91H3.78C4.59-17.8 8.47-11.14 15.43-6.1c6.95 5.05 16.59 7.57 28.93 7.57 7.46 0 14.11-1.15 19.94-3.44 5.84-2.3 10.44-5.55 13.83-9.78 3.38-4.22 5.08-9.2 5.12-14.95-.04-5.95-2.08-10.71-6.12-14.27-4.05-3.55-10.21-6.09-18.48-7.59l-16.39-2.95c-3.09-.55-5.16-1.34-6.23-2.36s-1.59-2.12-1.55-3.31c-.04-1.68.84-2.98 2.63-3.89 1.78-.91 3.92-1.37 6.41-1.37 1.92 0 3.68.33 5.28.97 1.59.65 2.9 1.57 3.91 2.76 1.02 1.2 1.6 2.61 1.74 4.26h26.7c-.35-8.55-3.9-15.24-10.64-20.08z" style="display:block" transform="matrix(1.10938 0 0 1.06 1344.52 784)"/></g></g><g aria-label="Digital" font-size="117" mask="url(#__lottie_element_902_3)" style="display:block"><g style="display:inherit"><path d="M1051.668 602.52h8.14c4.43 0 8.18.68 11.24 2.04 3.06 1.35 5.38 3.69 6.98 7.02 1.59 3.32 2.39 7.95 2.39 13.87 0 5.93-.79 10.56-2.35 13.88-1.57 3.33-3.84 5.67-6.82 7.02-2.97 1.36-6.57 2.04-10.78 2.04h-8.8zm32.11 60.39c6.34-3.39 11.25-8.27 14.71-14.62 3.46-6.36 5.19-13.97 5.19-22.84 0-8.86-1.73-16.47-5.21-22.83-3.48-6.35-8.41-11.23-14.79-14.62-6.39-3.39-13.96-5.09-22.71-5.09h-32.41V668h32.74c8.65 0 16.14-1.7 22.48-5.09z" style="display:block"/></g><g style="display:inherit"><path d="M1129.44 594.46c2.2-2.05 3.31-4.52 3.31-7.4s-1.11-5.34-3.31-7.39-4.87-3.08-8-3.08c-3.1 0-5.76 1.03-7.97 3.08-2.22 2.05-3.33 4.51-3.33 7.39s1.11 5.35 3.33 7.4c2.21 2.05 4.88 3.07 8.02 3.07 3.1 0 5.75-1.02 7.95-3.07zm3.47 73.54v-63.82h-22.93V668z" style="display:block"/></g><g style="display:inherit"><path d="M1166.063 649.16c-1.48-1.15-2.61-2.83-3.4-5.03s-1.19-4.88-1.19-8.04.4-5.86 1.19-8.12 1.92-3.99 3.4-5.2c1.48-1.2 3.28-1.8 5.38-1.8 2.11 0 3.91.6 5.42 1.8 1.51 1.21 2.68 2.94 3.5 5.2.81 2.26 1.22 4.96 1.22 8.12 0 3.1-.41 5.76-1.22 7.96-.82 2.2-1.99 3.89-3.5 5.07-1.51 1.17-3.31 1.76-5.42 1.76-2.1 0-3.9-.57-5.38-1.72zm22.21 41.11c5.04-2 8.95-4.88 11.74-8.66 2.78-3.78 4.17-8.38 4.17-13.78v-63.65h-22.93v11.14h-.5q-1.245-3.24-3.66-5.97c-1.6-1.81-3.6-3.26-5.98-4.36-2.38-1.09-5.15-1.64-8.31-1.64-4.21 0-8.22 1.12-12.03 3.37q-5.715 3.36-9.3 10.59-3.6 7.23-3.6 18.78c0 7.37 1.15 13.34 3.43 17.91 2.29 4.57 5.33 7.91 9.14 10.01 3.81 2.11 7.98 3.16 12.53 3.16 2.88 0 5.52-.39 7.93-1.18s4.48-1.94 6.19-3.45c1.72-1.51 3-3.35 3.83-5.51h.66v10.8c0 3.77-.98 6.37-2.93 7.81-1.95 1.45-4.41 2.17-7.37 2.17-1.75 0-3.32-.19-4.72-.57-1.4-.37-2.54-.97-3.43-1.8-.88-.83-1.44-1.93-1.66-3.29h-22.1c.3 4.1 1.71 7.74 4.22 10.91 2.5 3.17 6.03 5.67 10.59 7.48s10.03 2.72 16.43 2.72c6.73 0 12.62-1 17.66-2.99z" style="display:block"/></g><g style="display:inherit"><path d="M1230.598 594.46c2.2-2.05 3.31-4.52 3.31-7.4s-1.11-5.34-3.31-7.39-4.87-3.08-8-3.08c-3.1 0-5.76 1.03-7.97 3.08-2.22 2.05-3.33 4.51-3.33 7.39s1.11 5.35 3.33 7.4c2.21 2.05 4.88 3.07 8.02 3.07 3.1 0 5.75-1.02 7.95-3.07zm3.47 73.54v-63.82h-22.93V668z" style="display:block"/></g><g style="display:inherit"><path d="M1245.181 649.64c-.05 4.46.82 8.17 2.62 11.13 1.8 2.97 4.49 5.13 8.06 6.5s7.99 1.92 13.25 1.64c2.61-.14 4.86-.43 6.76-.87 1.89-.44 3.35-.81 4.38-1.12l-3.33-16.12c-.44.11-1.12.25-2.05.41-.93.17-1.74.25-2.43.25-1 0-1.82-.14-2.45-.43-.64-.29-1.11-.74-1.42-1.33-.3-.6-.45-1.34-.45-2.23v-58.58h-22.94zm-8.14-45.46v16.62h42.04v-16.62z" style="display:block"/></g><g style="display:inherit"><path d="M1304.193 653.13c-1.25-.95-1.87-2.3-1.87-4.08 0-1.1.27-2.11.81-3.01q.81-1.35 2.49-2.28c1.13-.63 2.57-1.08 4.35-1.35.91-.14 1.79-.3 2.63-.46.85-.17 1.65-.35 2.41-.54s1.49-.4 2.16-.62a33 33 0 0 0 1.94-.71v5.32c0 1.94-.49 3.59-1.46 4.94a9.45 9.45 0 0 1-3.76 3.12q-2.31 1.08-4.92 1.08c-1.94 0-3.53-.47-4.78-1.41zm4.92 14.87c2.32-.66 4.38-1.73 6.19-3.2 1.82-1.47 3.36-3.39 4.64-5.77h.5V668h21.43v-43.71q0-4.44-2.01-8.25c-1.35-2.53-3.29-4.75-5.84-6.64-2.55-1.9-5.64-3.38-9.26-4.45-3.63-1.06-7.73-1.6-12.3-1.6q-9.525 0-15.87 2.97c-4.24 1.98-7.46 4.61-9.66 7.9-2.2 3.28-3.45 6.86-3.72 10.74h21.1c.28-1.97 1.11-3.43 2.48-4.39 1.37-.95 3.15-1.43 5.34-1.43 1.99 0 3.62.44 4.9 1.33 1.27.89 1.91 2.16 1.91 3.82v.17c0 1.22-.49 2.19-1.45 2.93-.97.73-2.55 1.3-4.72 1.7s-5.05.74-8.62 1.02c-3.3.25-6.37.79-9.2 1.62-2.84.83-5.33 2.03-7.46 3.61-2.14 1.58-3.8 3.61-4.99 6.09s-1.78 5.46-1.78 8.95c0 4.24.88 7.73 2.65 10.47 1.78 2.75 4.22 4.79 7.34 6.13 3.11 1.35 6.71 2.02 10.78 2.02 2.77 0 5.31-.34 7.62-1z" style="display:block"/></g><g style="display:inherit"><path d="M1348.168 582.91V668h22.93v-85.09z" style="display:block"/></g></g><g aria-label="Dazzling" font-size="117" mask="url(#__lottie_element_871_3)" style="display:block"><g style="display:inherit"><path d="M560.868 546.52h8.14c4.43 0 8.18.68 11.24 2.04 3.06 1.35 5.38 3.69 6.98 7.02 1.59 3.32 2.39 7.95 2.39 13.87 0 5.93-.79 10.56-2.35 13.88-1.57 3.33-3.84 5.67-6.82 7.02-2.97 1.36-6.57 2.04-10.78 2.04h-8.8zm32.11 60.39c6.34-3.39 11.25-8.27 14.71-14.62 3.46-6.36 5.19-13.97 5.19-22.84 0-8.86-1.73-16.47-5.21-22.83-3.48-6.35-8.41-11.23-14.79-14.62-6.39-3.39-13.96-5.09-22.71-5.09h-32.41V612h32.74c8.65 0 16.14-1.7 22.48-5.09z" style="display:block"/></g><g style="display:inherit"><path d="M639.66 597.13c-1.25-.95-1.87-2.3-1.87-4.08 0-1.1.27-2.11.81-3.01q.81-1.35 2.49-2.28c1.13-.63 2.57-1.08 4.35-1.35.91-.14 1.79-.3 2.63-.46.85-.17 1.65-.35 2.41-.54s1.49-.4 2.16-.62a33 33 0 0 0 1.94-.71v5.32c0 1.94-.49 3.59-1.46 4.94a9.45 9.45 0 0 1-3.76 3.12q-2.31 1.08-4.92 1.08c-1.94 0-3.53-.47-4.78-1.41zm4.92 14.87c2.32-.66 4.38-1.73 6.19-3.2 1.82-1.47 3.36-3.39 4.64-5.77h.5V612h21.43v-43.71q0-4.44-2.01-8.25c-1.35-2.53-3.29-4.75-5.84-6.64-2.55-1.9-5.64-3.38-9.26-4.45-3.63-1.06-7.73-1.6-12.3-1.6q-9.525 0-15.87 2.97c-4.24 1.98-7.46 4.61-9.66 7.9-2.2 3.28-3.45 6.86-3.72 10.74h21.1c.28-1.97 1.11-3.43 2.48-4.39 1.37-.95 3.15-1.43 5.34-1.43 1.99 0 3.62.44 4.9 1.33 1.27.89 1.91 2.16 1.91 3.82v.17c0 1.22-.49 2.19-1.45 2.93-.97.73-2.55 1.3-4.72 1.7s-5.05.74-8.62 1.02c-3.3.25-6.37.79-9.2 1.62-2.84.83-5.33 2.03-7.46 3.61-2.14 1.58-3.8 3.61-4.99 6.09s-1.78 5.46-1.78 8.95c0 4.24.88 7.73 2.65 10.47 1.78 2.75 4.22 4.79 7.34 6.13 3.11 1.35 6.71 2.02 10.78 2.02 2.77 0 5.31-.34 7.62-1z" style="display:block"/></g><g style="display:inherit"><path d="M740.305 612v-17.45h-26.43v-.33l25.43-32.08v-13.96h-54.01v17.45h26.92v.33l-27.92 33.41V612z" style="display:block"/></g><g style="display:inherit"><path d="M804.924 612v-17.45h-26.43v-.33l25.43-32.08v-13.96h-54.01v17.45h26.92v.33l-27.92 33.41V612z" style="display:block"/></g><g style="display:inherit"><path d="M812.873 526.91V612h22.93v-85.09z" style="display:block"/></g><g style="display:inherit"><path d="M862.226 538.46c2.2-2.05 3.31-4.52 3.31-7.4s-1.11-5.34-3.31-7.39-4.87-3.08-8-3.08c-3.1 0-5.76 1.03-7.97 3.08-2.22 2.05-3.33 4.51-3.33 7.39s1.11 5.35 3.33 7.4c2.21 2.05 4.88 3.07 8.02 3.07 3.1 0 5.75-1.02 7.95-3.07zm3.47 73.54v-63.82h-22.93V612z" style="display:block"/></g><g style="display:inherit"><path d="M896.75 570.68c.75-1.51 1.83-2.67 3.22-3.49 1.4-.82 3.04-1.23 4.93-1.23 2.88 0 5.13.9 6.75 2.71 1.62 1.8 2.42 4.27 2.39 7.43V612h22.93v-40.72c.03-4.62-.88-8.74-2.72-12.34q-2.76-5.4-7.77-8.49c-3.33-2.07-7.26-3.1-11.78-3.1q-7.02 0-12.27 3.45c-3.51 2.3-5.95 5.47-7.34 9.51h-.66v-12.13h-21.77V612h22.93v-35.9c.03-2.1.42-3.91 1.16-5.42z" style="display:block"/></g><g style="display:inherit"><path d="M969.787 593.16c-1.48-1.15-2.61-2.83-3.4-5.03s-1.19-4.88-1.19-8.04.4-5.86 1.19-8.12 1.92-3.99 3.4-5.2c1.48-1.2 3.28-1.8 5.38-1.8 2.11 0 3.91.6 5.42 1.8 1.51 1.21 2.68 2.94 3.5 5.2.81 2.26 1.22 4.96 1.22 8.12 0 3.1-.41 5.76-1.22 7.96-.82 2.2-1.99 3.89-3.5 5.07-1.51 1.17-3.31 1.76-5.42 1.76-2.1 0-3.9-.57-5.38-1.72zm22.21 41.11c5.04-2 8.95-4.88 11.74-8.66 2.78-3.78 4.17-8.38 4.17-13.78v-63.65h-22.93v11.14h-.5q-1.245-3.24-3.66-5.97c-1.6-1.81-3.6-3.26-5.98-4.36-2.38-1.09-5.15-1.64-8.31-1.64-4.21 0-8.22 1.12-12.03 3.37q-5.715 3.36-9.3 10.59-3.6 7.23-3.6 18.78c0 7.37 1.15 13.34 3.43 17.91 2.29 4.57 5.33 7.91 9.14 10.01 3.81 2.11 7.98 3.16 12.53 3.16 2.88 0 5.52-.39 7.93-1.18s4.48-1.94 6.19-3.45c1.72-1.51 3-3.35 3.83-5.51h.66v10.8c0 3.77-.98 6.37-2.93 7.81-1.95 1.45-4.41 2.17-7.37 2.17-1.75 0-3.32-.19-4.72-.57-1.4-.37-2.54-.97-3.43-1.8-.88-.83-1.44-1.93-1.66-3.29h-22.1c.3 4.1 1.71 7.74 4.22 10.91 2.5 3.17 6.03 5.67 10.59 7.48s10.03 2.72 16.43 2.72c6.73 0 12.62-1 17.66-2.99z" style="display:block"/></g></g><g aria-label="Design" font-size="207" mask="url(#__lottie_element_8_3)" style="display:block"><g style="display:inherit"><path d="M50.57-115.85h14.41q11.76 0 19.89 3.6c5.41 2.4 9.53 6.55 12.35 12.43 2.81 5.88 4.22 14.06 4.22 24.55 0 10.48-1.38 18.67-4.15 24.55Q93.135-41.9 85.23-38.3c-5.27 2.4-11.62 3.6-19.07 3.6H50.57zM107.4-9c11.22-6.01 19.89-14.63 26.02-25.88 6.12-11.25 9.19-24.71 9.19-40.39 0-15.69-3.08-29.15-9.23-40.4-6.15-11.24-14.87-19.87-26.17-25.87-11.29-6-24.69-9-40.17-9H9.7V0h57.93c15.29 0 28.54-3 39.77-9z" style="display:block" transform="matrix(1.13756 0 0 1.12 573.998 508)"/></g><g style="display:inherit"><path d="M91.78-2.68c7.81-3.16 14.1-7.62 18.85-13.38s7.77-12.56 9.04-20.4H82.62c-.78 2.11-2.01 3.91-3.67 5.4-1.67 1.5-3.67 2.64-5.99 3.42-2.33.79-4.89 1.18-7.68 1.18-4.02 0-7.45-.81-10.3-2.43q-4.26-2.43-6.54-6.69c-1.52-2.84-2.28-6.07-2.28-9.7v-24.11c.1-3.29.97-6.15 2.61-8.6s3.84-4.38 6.58-5.77c2.75-1.4 5.76-2.1 9.04-2.1 3.39 0 6.41.7 9.08 2.1 2.67 1.39 4.8 3.33 6.4 5.8 1.59 2.48 2.41 5.33 2.46 8.57H18.82v22.35h100.85v-9.42c0-8.96-1.32-17.02-3.97-24.18-2.64-7.15-6.42-13.24-11.32-18.27-4.9-5.02-10.8-8.85-17.71-11.5s-14.63-3.97-23.16-3.97c-11.66 0-21.78 2.43-30.36 7.28-8.57 4.85-15.21 11.64-19.92 20.36-4.7 8.72-7.06 18.92-7.06 30.58 0 12.15 2.34 22.58 7.02 31.28S24.56-9.52 33.26-4.89s19.08 6.95 31.13 6.95q15.66 0 27.39-4.74z" style="display:block" transform="matrix(1.13756 0 0 1.12 734.828 508)"/></g><g style="display:inherit"><path d="M98.61-104.23c-9.43-6.77-22.31-10.15-38.63-10.15-10.73 0-20 1.43-27.82 4.3s-13.82 7.04-18.01 12.5-6.26 12.11-6.21 19.96c-.05 8.86 2.79 16.12 8.53 21.75 5.73 5.64 14.35 9.46 25.87 11.47l20 3.53c4.41.78 7.65 1.81 9.74 3.09 2.08 1.27 3.14 2.99 3.19 5.14-.05 2.35-1.28 4.17-3.71 5.44-2.43 1.28-5.5 1.91-9.22 1.91-4.61 0-8.42-.96-11.43-2.9-3.02-1.94-4.8-4.69-5.33-8.27H5.29C6.42-24.9 11.85-15.58 21.58-8.53 31.3-1.47 44.79 2.06 62.04 2.06c10.44 0 19.74-1.61 27.9-4.82s14.6-7.76 19.33-13.67 7.12-12.87 7.17-20.91c-.05-8.33-2.91-14.99-8.57-19.96q-8.49-7.455-25.83-10.62L59.1-72.04c-4.31-.78-7.22-1.88-8.71-3.31-1.49-1.42-2.22-2.96-2.17-4.63-.05-2.35 1.18-4.16 3.68-5.44 2.5-1.27 5.48-1.91 8.96-1.91 2.7 0 5.16.45 7.39 1.36s4.06 2.2 5.48 3.86c1.42 1.67 2.23 3.65 2.43 5.95h37.34c-.49-11.95-5.45-21.31-14.89-28.07z" style="display:block" transform="matrix(1.13756 0 0 1.12 866.223 508)"/></g><g style="display:inherit"><path d="M44.73-130.11c3.9-3.63 5.84-7.99 5.84-13.08 0-5.1-1.94-9.46-5.84-13.09s-8.61-5.44-14.15-5.44c-5.49 0-10.19 1.81-14.11 5.44s-5.88 7.99-5.88 13.09q0 7.635 5.88 13.08c3.92 3.63 8.64 5.44 14.18 5.44 5.49 0 10.18-1.81 14.08-5.44zM50.87 0v-112.91H10.29V0z" style="display:block" transform="matrix(1.13756 0 0 1.12 992.932 508)"/></g><g style="display:inherit"><path d="M56.64-33.34c-2.62-2.03-4.63-4.99-6.03-8.89s-2.09-8.64-2.09-14.23c0-5.58.69-10.37 2.09-14.37q2.1-5.985 6.03-9.18c2.62-2.14 5.79-3.2 9.52-3.2 3.72 0 6.92 1.06 9.59 3.2 2.67 2.13 4.73 5.19 6.17 9.18 1.45 4 2.17 8.79 2.17 14.37 0 5.49-.72 10.19-2.17 14.08-1.44 3.9-3.5 6.89-6.17 8.97s-5.87 3.12-9.59 3.12c-3.73 0-6.9-1.01-9.52-3.05zM95.93 39.4q13.38-5.295 20.76-15.33c4.93-6.69 7.39-14.81 7.39-24.36v-112.62H83.51v19.7h-.89c-1.47-3.82-3.62-7.34-6.46-10.55-2.85-3.21-6.38-5.78-10.59-7.72-4.22-1.93-9.11-2.9-14.7-2.9-7.45 0-14.55 1.99-21.28 5.96-6.74 3.97-12.23 10.21-16.47 18.74s-6.36 19.6-6.36 33.22c0 13.04 2.03 23.6 6.07 31.69C16.87-16.69 22.26-10.78 29-7.06c6.74 3.73 14.12 5.59 22.16 5.59 5.1 0 9.78-.7 14.04-2.09 4.27-1.4 7.92-3.43 10.96-6.11 3.03-2.67 5.29-5.91 6.76-9.74h1.17V-.29c0 6.66-1.72 11.27-5.18 13.82-3.45 2.54-7.8 3.82-13.05 3.82-3.08 0-5.87-.33-8.34-.99-2.47-.67-4.5-1.73-6.06-3.2-1.57-1.47-2.55-3.41-2.94-5.81H9.41c.54 7.25 3.02 13.69 7.46 19.3 4.43 5.61 10.68 10.02 18.74 13.23s17.76 4.81 29.08 4.81c11.91 0 22.32-1.76 31.24-5.29z" style="display:block" transform="matrix(1.13756 0 0 1.12 1050.741 508)"/></g><g style="display:inherit"><path d="M52.93-73.1c1.32-2.67 3.22-4.73 5.69-6.18 2.48-1.44 5.38-2.17 8.71-2.17 5.1 0 9.08 1.6 11.95 4.78 2.87 3.19 4.27 7.57 4.23 13.16V0h40.57v-72.04c.05-8.18-1.55-15.46-4.81-21.83s-7.84-11.38-13.75-15.03c-5.9-3.65-12.85-5.48-20.84-5.48-8.28 0-15.52 2.03-21.72 6.1S52.44-98.6 49.99-91.44h-1.18v-21.47H10.29V0h40.58v-63.51c.05-3.73.73-6.92 2.06-9.59z" style="display:block" transform="matrix(1.13756 0 0 1.12 1191.814 508)"/></g></g><g aria-label="We" font-size="124" mask="url(#__lottie_element_15_3)" style="display:block"><g style="display:inherit"><path d="m786.728 373.766 15.32-50.38h.71l15.32 50.38h23.43l26.59-90.18h-27.3l-12.33 55.66h-.7l-14.62-55.66h-21.49l-14.62 55.48h-.71l-12.32-55.48h-27.31l26.6 90.18z" style="display:block"/></g><g style="display:inherit"><path d="M919 372.39c4.68-1.89 8.44-4.56 11.29-8.01s4.65-7.52 5.42-12.22h-22.2a8.1 8.1 0 0 1-2.2 3.24c-1 .89-2.19 1.57-3.59 2.04-1.39.47-2.93.71-4.6.71-2.4 0-4.46-.49-6.16-1.46a9.8 9.8 0 0 1-3.92-4c-.91-1.71-1.37-3.64-1.37-5.82v-14.44c.06-1.97.58-3.68 1.57-5.15.98-1.47 2.29-2.62 3.94-3.46 1.64-.83 3.45-1.25 5.41-1.25 2.03 0 3.84.42 5.44 1.25 1.6.84 2.88 2 3.83 3.48.96 1.48 1.45 3.19 1.48 5.13h-38.05v13.39h60.42v-5.64c0-5.37-.8-10.2-2.38-14.49-1.58-4.28-3.85-7.93-6.78-10.94-2.94-3.01-6.47-5.3-10.61-6.89-4.14-1.58-8.77-2.38-13.87-2.38-6.99 0-13.05 1.46-18.19 4.36-5.14 2.91-9.12 6.97-11.93 12.2-2.82 5.23-4.23 11.33-4.23 18.32 0 7.28 1.4 13.52 4.2 18.73 2.81 5.22 6.81 9.21 12.03 11.98 5.21 2.77 11.42 4.16 18.64 4.16 6.26 0 11.72-.94 16.41-2.84z" style="display:block"/></g></g></g></g></svg>